<svg width="46" height="45" viewBox="0 0 46 45" fill="none" xmlns="http://www.w3.org/2000/svg">
<path d="M0.458055 22.5002C0.458055 22.115 0.517767 21.7538 0.637189 21.4168C0.756611 21.0797 0.961751 20.7667 1.2526 20.4778L20.3216 1.40876C20.8994 0.830916 21.5852 0.541992 22.3787 0.541992C23.1723 0.541992 23.859 0.830916 24.4388 1.40876C25.0166 1.98661 25.3055 2.66077 25.3055 3.43123C25.3055 4.2017 25.0166 4.87586 24.4388 5.4537L10.2815 19.611L42.641 19.611C43.4596 19.611 44.1338 19.8884 44.6635 20.4431C45.1932 20.9978 45.458 21.6835 45.458 22.5002C45.458 23.3189 45.1806 24.0055 44.6259 24.5603C44.0712 25.115 43.3855 25.3914 42.5688 25.3895L10.2815 25.3895L24.4388 39.5468C25.0166 40.1246 25.3055 40.7988 25.3055 41.5692C25.3055 42.3397 25.0166 43.0139 24.4388 43.5917C23.8609 44.1696 23.1742 44.4585 22.3787 44.4585C21.5832 44.4585 20.8975 44.1696 20.3216 43.5917L1.2526 24.5227C0.963677 24.2338 0.758537 23.9208 0.637189 23.5837C0.515841 23.2466 0.456129 22.8855 0.458055 22.5002Z" fill="black"/>
</svg>
