<svg width="45" height="45" viewBox="0 0 45 45" fill="none" xmlns="http://www.w3.org/2000/svg">
<path d="M22.5 45C16.25 45 10.9375 42.8125 6.5625 38.4375C2.1875 34.0625 0 28.75 0 22.5C0 16.25 2.1875 10.9375 6.5625 6.5625C10.9375 2.1875 16.25 0 22.5 0C23.0833 0 23.6567 0.0208336 24.22 0.0625002C24.7833 0.104167 25.335 0.166666 25.875 0.25C24.1667 1.45833 22.8017 3.03167 21.78 4.97C20.7583 6.90833 20.2483 9.00167 20.25 11.25C20.25 15 21.5625 18.1875 24.1875 20.8125C26.8125 23.4375 30 24.75 33.75 24.75C36.0417 24.75 38.1458 24.2392 40.0625 23.2175C41.9792 22.1958 43.5417 20.8317 44.75 19.125C44.8333 19.6667 44.8958 20.2183 44.9375 20.78C44.9792 21.3417 45 21.915 45 22.5C45 28.75 42.8125 34.0625 38.4375 38.4375C34.0625 42.8125 28.75 45 22.5 45Z" fill="white"/>
</svg>
